<svg width="18" height="20" viewBox="0 0 18 20" fill="none" xmlns="http://www.w3.org/2000/svg">
<path fill-rule="evenodd" clip-rule="evenodd" d="M9.00008 1.66667C7.23197 1.66667 5.53628 2.36905 4.28604 3.61929C3.03579 4.86953 2.33341 6.56522 2.33341 8.33333C2.33341 10.915 4.0132 13.4202 5.85504 15.3644C6.75892 16.3185 7.66564 17.0996 8.34731 17.6424C8.60101 17.8444 8.8226 18.0127 9.00008 18.1438C9.17756 18.0127 9.39915 17.8444 9.65285 17.6424C10.3345 17.0996 11.2412 16.3185 12.1451 15.3644C13.987 13.4202 15.6667 10.915 15.6667 8.33333C15.6667 6.56522 14.9644 4.86953 13.7141 3.61929C12.4639 2.36905 10.7682 1.66667 9.00008 1.66667ZM9.00008 19.1667C8.53783 19.86 8.53762 19.8599 8.53738 19.8597L8.535 19.8582L8.52945 19.8544L8.51035 19.8415C8.49412 19.8305 8.47098 19.8147 8.44138 19.7942C8.38219 19.7532 8.29713 19.6934 8.18991 19.616C7.97554 19.4612 7.67205 19.2352 7.3091 18.9462C6.58453 18.3692 5.61624 17.5357 4.64512 16.5106C2.73697 14.4965 0.666748 11.585 0.666748 8.33333C0.666748 6.1232 1.54472 4.00358 3.10752 2.44078C4.67033 0.877974 6.78994 0 9.00008 0C11.2102 0 13.3298 0.877974 14.8926 2.44078C16.4554 4.00358 17.3334 6.1232 17.3334 8.33333C17.3334 11.585 15.2632 14.4965 13.355 16.5106C12.3839 17.5357 11.4156 18.3692 10.6911 18.9462C10.3281 19.2352 10.0246 19.4612 9.81026 19.616C9.70303 19.6934 9.61797 19.7532 9.55878 19.7942C9.52919 19.8147 9.50604 19.8305 9.48982 19.8415L9.47072 19.8544L9.46517 19.8582L9.46341 19.8593C9.46317 19.8595 9.46233 19.86 9.00008 19.1667ZM9.00008 19.1667L9.46233 19.86C9.18242 20.0467 8.8173 20.0464 8.53738 19.8597L9.00008 19.1667Z" fill="#191632"/>
<path fill-rule="evenodd" clip-rule="evenodd" d="M9.00008 6.66667C8.07961 6.66667 7.33342 7.41286 7.33342 8.33333C7.33342 9.25381 8.07961 10 9.00008 10C9.92056 10 10.6667 9.25381 10.6667 8.33333C10.6667 7.41286 9.92056 6.66667 9.00008 6.66667ZM5.66675 8.33333C5.66675 6.49238 7.15913 5 9.00008 5C10.841 5 12.3334 6.49238 12.3334 8.33333C12.3334 10.1743 10.841 11.6667 9.00008 11.6667C7.15913 11.6667 5.66675 10.1743 5.66675 8.33333Z" fill="#191632"/>
</svg>
